<?xml version="1.0" encoding="UTF-8"?>
<svg width="256" height="256" viewBox="0 0 256 256" fill="none" xmlns="http://www.w3.org/2000/svg">
  <defs>
    <radialGradient id="bg" cx="50%" cy="48%" r="62%">
      <stop offset="0" stop-color="#153a22"/>
      <stop offset="0.58" stop-color="#07110c"/>
      <stop offset="1" stop-color="#040000"/>
    </radialGradient>
    <linearGradient id="g" x1="68" y1="30" x2="188" y2="224">
      <stop offset="0" stop-color="#82ff90"/>
      <stop offset="0.42" stop-color="#1ad35d"/>
      <stop offset="1" stop-color="#079c37"/>
    </linearGradient>
    <linearGradient id="edge" x1="74" y1="30" x2="186" y2="220">
      <stop offset="0" stop-color="#d7ffdc"/>
      <stop offset="0.45" stop-color="#37f06e"/>
      <stop offset="1" stop-color="#067a2d"/>
    </linearGradient>
    <filter id="glow" x="-35%" y="-35%" width="170%" height="170%" color-interpolation-filters="sRGB">
      <feGaussianBlur stdDeviation="10" result="b"/>
      <feColorMatrix in="b" type="matrix" values="0 0 0 0 0.10 0 0 0 0 0.83 0 0 0 0 0.36 0 0 0 0.62 0"/>
      <feMerge><feMergeNode/><feMergeNode in="SourceGraphic"/></feMerge>
    </filter>
    <filter id="shadow" x="-20%" y="-20%" width="140%" height="140%" color-interpolation-filters="sRGB">
      <feDropShadow dx="0" dy="4" stdDeviation="3" flood-color="#000" flood-opacity="0.48"/>
    </filter>
  </defs>
  <rect width="256" height="256" rx="54" fill="url(#bg)"/>
  <g filter="url(#glow)">
    <path d="M128 20.5C104.2 34.1 82.1 42.7 54 48.5C50.8 49.2 48.5 52 48.5 55.3V111.5C48.5 164.1 80.9 208.5 126.1 233.8C127.3 234.5 128.8 234.5 130 233.8C175.1 208.5 207.5 164.1 207.5 111.5V55.3C207.5 52 205.2 49.2 202 48.5C173.9 42.7 151.8 34.1 128 20.5Z" fill="url(#g)"/>
    <path d="M128 32C105.7 43.5 85.2 51.1 60 56.4V111.6C60 156.8 86 197.2 128 222.3C170 197.2 196 156.8 196 111.6V56.4C170.8 51.1 150.3 43.5 128 32Z" stroke="url(#edge)" stroke-width="7" stroke-linejoin="round"/>
    <path d="M128 44C109.5 53.4 91.6 59.8 71 64.4V112.2C71 150.1 91.9 184.8 128 207.7C164.1 184.8 185 150.1 185 112.2V64.4C164.4 59.8 146.5 53.4 128 44Z" fill="#5cff78" fill-opacity="0.18"/>
  </g>
  <g filter="url(#shadow)" fill="#050505">
    <path d="M123.5 68C123.5 63.6 127.1 60 131.5 60H142.5C146.9 60 150.5 63.6 150.5 68V133H164.8C171.4 133 174.8 140.9 170.2 145.7L134.7 183C131.1 186.8 124.9 186.8 121.3 183L85.8 145.7C81.2 140.9 84.6 133 91.2 133H105.5V118.8C100.9 121.8 95.4 123.5 89.5 123.5C73.2 123.5 60 112.2 60 98.2C60 84.2 73.2 72.8 89.5 72.8C103.1 72.8 114.6 80.8 118 91.6C119.1 95.1 123.5 94.3 123.5 90.6V68Z"/>
    <path d="M145 64C168.8 70.7 184.6 87.6 187.8 108.6C189.7 121.3 186.1 134.6 177.5 145.9C174.2 150.2 167.5 147.8 167.8 142.4C168.8 123.8 161.1 110.4 150.5 101.7V68C150.5 66.6 150.1 65.2 149.5 64H145Z" fill-opacity="0.96"/>
  </g>
</svg>
